# xmcd
#
# Track frame offsets:
#	150
#	16516
#	33332
#	48580
#	66991
#	85245
#	104074
#	124474
#	141126
#
# Disc length: 2124 seconds
#
# Revision: 2
# Processed by: cddbd v1.5.2PL0 Copyright (c) Steve Scherf et al.
# Submitted via: EZCDAudioConverter 8.0.2.1
#
DISCID=7c084a09
DTITLE=Lan Trinh - Vol 01. Là Người Phụ Nữ Anh Yêu
DYEAR=2011
DGENRE=World Pop
TTITLE0=Lan Trinh - Cảm xúc
TTITLE1=Lan Trinh, Phúc Bồ - Gió (Ngày lộng gió yêu)
TTITLE2=Lan Trinh - Là Người Phụ Nữ Anh Yêu
TTITLE3=Lan Trinh - Follow Your Dream (English Version)
TTITLE4=Lan Trinh - Ngày thật
TTITLE5=Lan Trinh - Mưa và em
TTITLE6=Lan Trinh - Chiếc ô ngăn đôi
TTITLE7=Lan Trinh - Chạy theo ánh mặt trời
TTITLE8=Lan Trinh - Follow Your Dream
EXTD=
EXTT0=
EXTT1=
EXTT2=
EXTT3=
EXTT4=
EXTT5=
EXTT6=
EXTT7=
EXTT8=
PLAYORDER=
